<svg width="165" height="28" viewBox="0 0 165 28" fill="none" xmlns="http://www.w3.org/2000/svg">
<path d="M61.0863 11.8365L60.99 11.9205L55.3525 16.8405L55.1267 17.0376L55.1941 17.3296L56.8828 24.6546L56.8831 24.6559C56.9501 24.9431 56.931 25.2437 56.8281 25.52C56.7252 25.7964 56.5432 26.0364 56.3047 26.2098C56.0662 26.3833 55.7818 26.4826 55.4872 26.4954C55.1928 26.5081 54.9012 26.4338 54.6487 26.2819C54.6485 26.2818 54.6483 26.2816 54.6481 26.2815L48.2606 22.4072L48.001 22.2498L47.7416 22.4075L41.3682 26.2815C41.3679 26.2817 41.3676 26.2818 41.3674 26.282C41.115 26.4339 40.8234 26.5081 40.5291 26.4954C40.2345 26.4826 39.9501 26.3833 39.7116 26.2098C39.4731 26.0364 39.2911 25.7964 39.1882 25.52C39.0853 25.2437 39.0662 24.9431 39.1332 24.6559L39.1335 24.6545L40.8198 17.337L40.887 17.0453L40.6615 16.8482L35.0228 11.9208L35.0228 11.9207L35.0203 11.9186C34.7967 11.7257 34.6349 11.471 34.5554 11.1866C34.4759 10.9021 34.4821 10.6005 34.5733 10.3195C34.6645 10.0386 34.8366 9.79083 35.0681 9.60732C35.2996 9.42381 35.5801 9.31273 35.8744 9.288L35.8757 9.28789L43.3082 8.64413L43.6093 8.61806L43.7261 8.33932L46.6274 1.41933L46.6277 1.41854C46.7412 1.1465 46.9327 0.914118 47.178 0.750667C47.4233 0.587216 47.7115 0.5 48.0063 0.5C48.3011 0.5 48.5892 0.587216 48.8346 0.750667C49.0799 0.914118 49.2713 1.1465 49.3848 1.41854L49.3854 1.41982L52.2954 8.33982L52.4124 8.61808L52.7131 8.64413L60.1431 9.28789L60.1444 9.288C60.4388 9.31273 60.7192 9.42381 60.9507 9.60732C61.1822 9.79083 61.3543 10.0386 61.4455 10.3195C61.5367 10.6005 61.5429 10.9021 61.4634 11.1866C61.3947 11.4323 61.2647 11.6558 61.0863 11.8365Z" fill="#F59E0B" stroke="black"/>
<path d="M95.0863 11.8365L94.99 11.9205L89.3525 16.8405L89.1267 17.0376L89.1941 17.3296L90.8828 24.6546L90.8831 24.6559C90.9501 24.9431 90.931 25.2437 90.8281 25.52C90.7252 25.7964 90.5432 26.0364 90.3047 26.2098C90.0662 26.3833 89.7818 26.4826 89.4872 26.4954C89.1928 26.5081 88.9012 26.4338 88.6487 26.2819C88.6485 26.2818 88.6483 26.2816 88.6481 26.2815L82.2606 22.4072L82.001 22.2498L81.7416 22.4075L75.3682 26.2815C75.3679 26.2817 75.3676 26.2818 75.3674 26.282C75.115 26.4339 74.8234 26.5081 74.5291 26.4954C74.2345 26.4826 73.9501 26.3833 73.7116 26.2098C73.4731 26.0364 73.2911 25.7964 73.1882 25.52C73.0853 25.2437 73.0662 24.9431 73.1332 24.6559L73.1335 24.6545L74.8198 17.337L74.887 17.0453L74.6615 16.8482L69.0228 11.9208L69.0228 11.9207L69.0203 11.9186C68.7967 11.7257 68.6349 11.471 68.5554 11.1866C68.4759 10.9021 68.4821 10.6005 68.5733 10.3195C68.6645 10.0386 68.8366 9.79083 69.0681 9.60732C69.2996 9.42381 69.5801 9.31273 69.8744 9.288L69.8757 9.28789L77.3082 8.64413L77.6093 8.61806L77.7261 8.33932L80.6274 1.41933L80.6277 1.41854C80.7412 1.1465 80.9327 0.914118 81.178 0.750667C81.4233 0.587216 81.7115 0.5 82.0063 0.5C82.3011 0.5 82.5892 0.587216 82.8346 0.750667C83.0799 0.914118 83.2713 1.1465 83.3848 1.41854L83.3854 1.41982L86.2954 8.33982L86.4124 8.61808L86.7131 8.64413L94.1431 9.28789L94.1444 9.288C94.4388 9.31273 94.7192 9.42381 94.9507 9.60732C95.1822 9.79083 95.3543 10.0386 95.4455 10.3195C95.5367 10.6005 95.5429 10.9021 95.4634 11.1866C95.3947 11.4323 95.2647 11.6558 95.0863 11.8365Z" fill="#F59E0B" stroke="black"/>
<path d="M129.086 12.8365L128.99 12.9205L123.353 17.8405L123.127 18.0376L123.194 18.3296L124.883 25.6546L124.883 25.6559C124.95 25.9431 124.931 26.2437 124.828 26.52C124.725 26.7964 124.543 27.0364 124.305 27.2098C124.066 27.3833 123.782 27.4826 123.487 27.4954C123.193 27.5081 122.901 27.4338 122.649 27.2819C122.649 27.2818 122.648 27.2816 122.648 27.2815L116.261 23.4072L116.001 23.2498L115.742 23.4075L109.368 27.2815C109.368 27.2817 109.368 27.2818 109.367 27.282C109.115 27.4339 108.823 27.5081 108.529 27.4954C108.234 27.4826 107.95 27.3833 107.712 27.2098C107.473 27.0364 107.291 26.7964 107.188 26.52C107.085 26.2437 107.066 25.9431 107.133 25.6559L107.134 25.6545L108.82 18.337L108.887 18.0453L108.662 17.8482L103.023 12.9208L103.023 12.9207L103.02 12.9186C102.797 12.7257 102.635 12.471 102.555 12.1866C102.476 11.9021 102.482 11.6005 102.573 11.3195C102.665 11.0386 102.837 10.7908 103.068 10.6073C103.3 10.4238 103.58 10.3127 103.874 10.288L103.876 10.2879L111.308 9.64413L111.609 9.61806L111.726 9.33932L114.627 2.41933L114.628 2.41854C114.741 2.1465 114.933 1.91412 115.178 1.75067C115.423 1.58722 115.712 1.5 116.006 1.5C116.301 1.5 116.589 1.58722 116.835 1.75067C117.08 1.91412 117.271 2.1465 117.385 2.41854L117.385 2.41982L120.295 9.33982L120.412 9.61808L120.713 9.64413L128.143 10.2879L128.144 10.288C128.439 10.3127 128.719 10.4238 128.951 10.6073C129.182 10.7908 129.354 11.0386 129.445 11.3195C129.537 11.6005 129.543 11.9021 129.463 12.1866C129.395 12.4323 129.265 12.6558 129.086 12.8365Z" fill="#F59E0B" stroke="black"/>
<path d="M163.086 12.8365L162.99 12.9205L157.353 17.8405L157.127 18.0376L157.194 18.3296L158.883 25.6546L158.883 25.6559C158.95 25.9431 158.931 26.2437 158.828 26.52C158.725 26.7964 158.543 27.0364 158.305 27.2098C158.066 27.3833 157.782 27.4826 157.487 27.4954C157.193 27.5081 156.901 27.4338 156.649 27.2819C156.649 27.2818 156.648 27.2816 156.648 27.2815L150.261 23.4072L150.001 23.2498L149.742 23.4075L143.368 27.2815C143.368 27.2817 143.368 27.2818 143.367 27.282C143.115 27.4339 142.823 27.5081 142.529 27.4954C142.234 27.4826 141.95 27.3833 141.712 27.2098C141.473 27.0364 141.291 26.7964 141.188 26.52C141.085 26.2437 141.066 25.9431 141.133 25.6559L141.134 25.6545L142.82 18.337L142.887 18.0453L142.662 17.8482L137.023 12.9208L137.023 12.9207L137.02 12.9186C136.797 12.7257 136.635 12.471 136.555 12.1866C136.476 11.9021 136.482 11.6005 136.573 11.3195C136.665 11.0386 136.837 10.7908 137.068 10.6073C137.3 10.4238 137.58 10.3127 137.874 10.288L137.876 10.2879L145.308 9.64413L145.609 9.61806L145.726 9.33932L148.627 2.41933L148.628 2.41854C148.741 2.1465 148.933 1.91412 149.178 1.75067C149.423 1.58722 149.712 1.5 150.006 1.5C150.301 1.5 150.589 1.58722 150.835 1.75067C151.08 1.91412 151.271 2.1465 151.385 2.41854L151.385 2.41982L154.295 9.33982L154.412 9.61808L154.713 9.64413L162.143 10.2879L162.144 10.288C162.439 10.3127 162.719 10.4238 162.951 10.6073C163.182 10.7908 163.354 11.0386 163.445 11.3195C163.537 11.6005 163.543 11.9021 163.463 12.1866C163.395 12.4323 163.265 12.6558 163.086 12.8365Z" fill="#F59E0B" stroke="black"/>
<path d="M27.0863 12.8365L26.99 12.9205L21.3525 17.8405L21.1267 18.0376L21.1941 18.3296L22.8828 25.6546L22.8831 25.6559C22.9501 25.9431 22.931 26.2437 22.8281 26.52C22.7252 26.7964 22.5432 27.0364 22.3047 27.2098C22.0662 27.3833 21.7818 27.4826 21.4872 27.4954C21.1928 27.5081 20.9012 27.4338 20.6487 27.2819C20.6485 27.2818 20.6483 27.2816 20.6481 27.2815L14.2606 23.4072L14.001 23.2498L13.7416 23.4075L7.36819 27.2815C7.36792 27.2817 7.36765 27.2818 7.36737 27.282C7.11497 27.4339 6.82343 27.5081 6.52911 27.4954C6.23447 27.4826 5.95013 27.3833 5.71163 27.2098C5.47313 27.0364 5.29106 26.7964 5.18818 26.52C5.0853 26.2437 5.06617 25.9431 5.1332 25.6559L5.13351 25.6545L6.81976 18.337L6.88699 18.0453L6.66154 17.8482L1.02279 12.9208L1.02279 12.9207L1.02033 12.9186C0.796654 12.7257 0.634911 12.471 0.555386 12.1866C0.475861 11.9021 0.482096 11.6005 0.573307 11.3195C0.664518 11.0386 0.836647 10.7908 1.06811 10.6073C1.29957 10.4238 1.58005 10.3127 1.8744 10.288L1.87567 10.2879L9.30817 9.64413L9.60928 9.61806L9.72614 9.33932L12.6274 2.41933L12.6277 2.41854C12.7412 2.1465 12.9327 1.91412 13.178 1.75067C13.4233 1.58722 13.7115 1.5 14.0063 1.5C14.3011 1.5 14.5892 1.58722 14.8346 1.75067C15.0799 1.91412 15.2713 2.1465 15.3848 2.41854L15.3854 2.41982L18.2954 9.33982L18.4124 9.61808L18.7131 9.64413L26.1431 10.2879L26.1444 10.288C26.4388 10.3127 26.7192 10.4238 26.9507 10.6073C27.1822 10.7908 27.3543 11.0386 27.4455 11.3195C27.5367 11.6005 27.5429 11.9021 27.4634 12.1866C27.3947 12.4323 27.2647 12.6558 27.0863 12.8365Z" fill="#F59E0B" stroke="black"/>
</svg>
