<svg width="51" height="63" viewBox="0 0 51 63" fill="none" xmlns="http://www.w3.org/2000/svg">
<path d="M28.8128 46.4259C28.8128 47.3342 28.5947 48.2222 28.1862 48.9774C27.7777 49.7327 27.1971 50.3213 26.5177 50.6689C25.8384 51.0165 25.0909 51.1075 24.3697 50.9303C23.6485 50.7531 22.9861 50.3157 22.4661 49.6734C21.9462 49.0311 21.5921 48.2128 21.4487 47.3219C21.3052 46.431 21.3788 45.5076 21.6602 44.6684C21.9416 43.8292 22.4181 43.112 23.0295 42.6073C23.6409 42.1027 24.3597 41.8333 25.095 41.8333C26.081 41.8333 27.0266 42.3172 27.7239 43.1785C28.4211 44.0397 28.8128 45.2079 28.8128 46.4259ZM50.19 31.5C50.19 37.6312 48.7182 43.6247 45.9607 48.7227C43.2033 53.8206 39.284 57.7939 34.6984 60.1403C30.1129 62.4866 25.0672 63.1005 20.1992 61.9043C15.3313 60.7082 10.8598 57.7557 7.35017 53.4203C3.84057 49.0849 1.4505 43.5612 0.482205 37.5478C-0.486091 31.5344 0.0108733 25.3013 1.91025 19.6368C3.80963 13.9723 7.02612 9.13076 11.153 5.72444C15.2798 2.31812 20.1317 0.5 25.095 0.5C31.7483 0.509117 38.1271 3.77811 42.8317 9.58976C47.5363 15.4014 50.1826 23.2811 50.19 31.5ZM44.6133 31.5C44.6133 26.7313 43.4686 22.0696 41.3239 18.1046C39.1792 14.1395 36.1309 11.0491 32.5643 9.22424C28.9978 7.39932 25.0734 6.92184 21.2872 7.85218C17.501 8.78251 14.0231 11.0789 11.2935 14.4509C8.56377 17.8229 6.70483 22.1191 5.95172 26.7962C5.1986 31.4732 5.58512 36.3212 7.06242 40.7269C8.53972 45.1326 11.0414 48.8983 14.2512 51.5476C17.461 54.197 21.2346 55.6111 25.095 55.6111C30.2699 55.6043 35.2312 53.0618 38.8904 48.5416C42.5496 44.0213 44.6078 37.8926 44.6133 31.5ZM25.095 13.1296C19.4579 13.1296 14.8711 18.2791 14.8711 24.6111V25.7593C14.8711 26.6728 15.1649 27.5489 15.6878 28.1948C16.2107 28.8408 16.9199 29.2037 17.6595 29.2037C18.399 29.2037 19.1082 28.8408 19.6311 28.1948C20.154 27.5489 20.4478 26.6728 20.4478 25.7593V24.6111C20.4478 22.0794 22.539 20.0185 25.095 20.0185C27.651 20.0185 29.7422 22.0794 29.7422 24.6111C29.7422 27.1428 27.651 29.2037 25.095 29.2037C24.3555 29.2037 23.6463 29.5666 23.1234 30.2126C22.6004 30.8585 22.3067 31.7346 22.3067 32.6481V34.9444C22.305 35.7954 22.5584 36.617 23.0181 37.2509C23.4777 37.8848 24.111 38.286 24.7959 38.3773C25.4808 38.4686 26.1689 38.2434 26.7274 37.7452C27.2859 37.2471 27.6753 36.5111 27.8206 35.6793C32.1379 34.3359 35.3189 29.884 35.3189 24.6111C35.3189 18.2791 30.7321 13.1296 25.095 13.1296Z" fill="black"/>
</svg>
