<svg width="51" height="63" viewBox="0 0 51 63" fill="none" xmlns="http://www.w3.org/2000/svg">
<rect width="51" height="63" fill="#F5F5F5"/>
<g id="TelaSobreN&#195;&#179;s">
<g id="Ajuda" clip-path="url(#clip0_0_1)">
<rect width="1440" height="1650" transform="translate(-203 -273)" fill="#E2E8F0"/>
<rect id="Rectangle 19" x="-87" y="-57" width="1208" height="1182" fill="#FED7AA"/>
<g id="&#226;&#128;&#142;" filter="url(#filter0_d_0_1)">
<rect x="-40" y="-9" width="1114" height="81" rx="12" fill="#FB923C" shape-rendering="crispEdges"/>
<path id="Vector" d="M28.8128 46.4259C28.8128 47.3342 28.5947 48.2222 28.1862 48.9774C27.7777 49.7327 27.1971 50.3213 26.5177 50.6689C25.8384 51.0165 25.0909 51.1075 24.3697 50.9303C23.6485 50.7531 22.9861 50.3157 22.4661 49.6734C21.9462 49.0311 21.5921 48.2128 21.4487 47.3219C21.3052 46.431 21.3788 45.5076 21.6602 44.6684C21.9416 43.8292 22.4181 43.112 23.0295 42.6073C23.6409 42.1027 24.3597 41.8333 25.095 41.8333C26.081 41.8333 27.0266 42.3172 27.7239 43.1785C28.4211 44.0397 28.8128 45.2079 28.8128 46.4259ZM50.19 31.5C50.19 37.6312 48.7182 43.6247 45.9607 48.7227C43.2033 53.8206 39.284 57.7939 34.6984 60.1403C30.1129 62.4866 25.0672 63.1005 20.1992 61.9043C15.3313 60.7082 10.8598 57.7557 7.35017 53.4203C3.84057 49.0849 1.4505 43.5612 0.482205 37.5478C-0.486091 31.5344 0.0108733 25.3013 1.91025 19.6368C3.80963 13.9723 7.02612 9.13076 11.153 5.72444C15.2798 2.31812 20.1317 0.5 25.095 0.5C31.7483 0.509117 38.1271 3.77811 42.8317 9.58976C47.5363 15.4014 50.1826 23.2811 50.19 31.5ZM44.6133 31.5C44.6133 26.7313 43.4686 22.0696 41.3239 18.1046C39.1792 14.1395 36.1309 11.0491 32.5643 9.22424C28.9978 7.39932 25.0734 6.92184 21.2872 7.85218C17.501 8.78251 14.0231 11.0789 11.2935 14.4509C8.56378 17.8229 6.70483 22.1191 5.95172 26.7962C5.1986 31.4732 5.58512 36.3212 7.06242 40.7269C8.53972 45.1326 11.0414 48.8983 14.2512 51.5476C17.461 54.197 21.2346 55.6111 25.095 55.6111C30.2699 55.6043 35.2312 53.0618 38.8904 48.5416C42.5496 44.0213 44.6078 37.8926 44.6133 31.5ZM25.095 13.1296C19.4579 13.1296 14.8711 18.2791 14.8711 24.6111V25.7593C14.8711 26.6728 15.1649 27.5489 15.6878 28.1948C16.2107 28.8408 16.9199 29.2037 17.6595 29.2037C18.399 29.2037 19.1082 28.8408 19.6311 28.1948C20.154 27.5489 20.4478 26.6728 20.4478 25.7593V24.6111C20.4478 22.0794 22.539 20.0185 25.095 20.0185C27.651 20.0185 29.7422 22.0794 29.7422 24.6111C29.7422 27.1428 27.651 29.2037 25.095 29.2037C24.3555 29.2037 23.6463 29.5666 23.1234 30.2126C22.6004 30.8585 22.3067 31.7346 22.3067 32.6481V34.9444C22.305 35.7954 22.5584 36.617 23.0181 37.2509C23.4777 37.8848 24.111 38.286 24.7959 38.3773C25.4808 38.4686 26.1689 38.2434 26.7274 37.7452C27.2859 37.2471 27.6753 36.5111 27.8206 35.6793C32.1379 34.3359 35.3189 29.884 35.3189 24.6111C35.3189 18.2791 30.7321 13.1296 25.095 13.1296Z" fill="black"/>
<rect x="-39" y="-8" width="1112" height="79" rx="11" stroke="#7C2D12" stroke-width="2" shape-rendering="crispEdges"/>
</g>
</g>
<g id="Ajuda_2" clip-path="url(#clip1_0_1)">
<rect width="1440" height="1650" transform="translate(-203 -273)" fill="#E2E8F0"/>
<rect id="Rectangle 19_2" x="-87" y="-57" width="1208" height="1182" fill="#FED7AA"/>
<g id="&#226;&#128;&#142;_2" filter="url(#filter1_d_0_1)">
<rect x="-40" y="-9" width="1114" height="81" rx="12" fill="#FB923C" shape-rendering="crispEdges"/>
<path id="Vector_2" d="M36.8037 40.1111C34.2477 45.582 29.9746 48.7222 25.095 48.7222C20.2154 48.7222 15.9493 45.5849 13.3863 40.1111C13.0325 39.3213 12.9438 38.3916 13.1393 37.5218C13.3348 36.6521 13.7988 35.9119 14.4316 35.4605C15.0644 35.0091 15.8153 34.8826 16.5228 35.1081C17.2303 35.3337 17.8379 35.8934 18.2148 36.6667C19.1187 38.5984 21.2146 41.8333 25.095 41.8333C28.9754 41.8333 31.0713 38.5955 31.9752 36.6667C32.1546 36.2663 32.3968 35.914 32.6876 35.6306C32.9784 35.3471 33.312 35.138 33.6689 35.0156C34.0259 34.8932 34.399 34.8598 34.7665 34.9175C35.134 34.9752 35.4885 35.1228 35.8093 35.3517C36.1301 35.5805 36.4107 35.886 36.6349 36.2504C36.859 36.6147 37.0222 37.0306 37.1147 37.4737C37.2073 37.9168 37.2275 38.3782 37.1741 38.8311C37.1207 39.2839 36.9948 39.7191 36.8037 40.1111ZM50.19 31.5C50.19 37.6312 48.7182 43.6247 45.9607 48.7227C43.2033 53.8206 39.284 57.7939 34.6984 60.1403C30.1129 62.4866 25.0672 63.1005 20.1992 61.9043C15.3313 60.7082 10.8598 57.7557 7.35017 53.4203C3.84057 49.0849 1.4505 43.5612 0.482205 37.5478C-0.486091 31.5344 0.0108733 25.3013 1.91025 19.6368C3.80963 13.9723 7.02612 9.13076 11.153 5.72444C15.2798 2.31812 20.1317 0.5 25.095 0.5C31.7483 0.509117 38.1271 3.77811 42.8317 9.58976C47.5363 15.4014 50.1826 23.2811 50.19 31.5ZM44.6133 31.5C44.6133 26.7313 43.4686 22.0696 41.3239 18.1046C39.1792 14.1395 36.1309 11.0491 32.5643 9.22424C28.9978 7.39932 25.0734 6.92184 21.2872 7.85218C17.501 8.78251 14.0231 11.0789 11.2935 14.4509C8.56378 17.8229 6.70483 22.1191 5.95172 26.7962C5.1986 31.4732 5.58512 36.3212 7.06242 40.7269C8.53972 45.1326 11.0414 48.8983 14.2512 51.5476C17.461 54.197 21.2346 55.6111 25.095 55.6111C30.2699 55.6043 35.2312 53.0618 38.8904 48.5416C42.5496 44.0213 44.6078 37.8926 44.6133 31.5ZM16.73 30.3518C17.4653 30.3518 18.1841 30.0825 18.7955 29.5779C19.4069 29.0732 19.8834 28.3559 20.1648 27.5168C20.4462 26.6776 20.5198 25.7542 20.3763 24.8633C20.2329 23.9724 19.8788 23.1541 19.3589 22.5118C18.8389 21.8695 18.1765 21.4321 17.4553 21.2549C16.7341 21.0777 15.9866 21.1686 15.3073 21.5163C14.6279 21.8639 14.0473 22.4525 13.6388 23.2077C13.2303 23.963 13.0122 24.8509 13.0122 25.7593C13.0122 26.9773 13.4039 28.1454 14.1011 29.0067C14.7984 29.868 15.744 30.3518 16.73 30.3518ZM33.46 21.1667C32.7247 21.1667 32.0059 21.436 31.3945 21.9407C30.7831 22.4453 30.3066 23.1626 30.0252 24.0017C29.7438 24.8409 29.6702 25.7643 29.8137 26.6552C29.9571 27.5461 30.3112 28.3644 30.8311 29.0067C31.3511 29.649 32.0135 30.0864 32.7347 30.2636C33.4559 30.4408 34.2034 30.3499 34.8827 30.0023C35.5621 29.6547 36.1427 29.066 36.5512 28.3108C36.9597 27.5555 37.1778 26.6676 37.1778 25.7593C37.1778 24.5412 36.7861 23.3731 36.0889 22.5118C35.3916 21.6505 34.446 21.1667 33.46 21.1667Z" fill="black"/>
<rect x="-39" y="-8" width="1112" height="79" rx="11" stroke="#7C2D12" stroke-width="2" shape-rendering="crispEdges"/>
</g>
</g>
</g>
<defs>
<filter id="filter0_d_0_1" x="-44" y="-9" width="1122" height="89" filterUnits="userSpaceOnUse" color-interpolation-filters="sRGB">
<feFlood flood-opacity="0" result="BackgroundImageFix"/>
<feColorMatrix in="SourceAlpha" type="matrix" values="0 0 0 0 0 0 0 0 0 0 0 0 0 0 0 0 0 0 127 0" result="hardAlpha"/>
<feOffset dy="4"/>
<feGaussianBlur stdDeviation="2"/>
<feComposite in2="hardAlpha" operator="out"/>
<feColorMatrix type="matrix" values="0 0 0 0 0 0 0 0 0 0 0 0 0 0 0 0 0 0 0.25 0"/>
<feBlend mode="normal" in2="BackgroundImageFix" result="effect1_dropShadow_0_1"/>
<feBlend mode="normal" in="SourceGraphic" in2="effect1_dropShadow_0_1" result="shape"/>
</filter>
<filter id="filter1_d_0_1" x="-44" y="-9" width="1122" height="89" filterUnits="userSpaceOnUse" color-interpolation-filters="sRGB">
<feFlood flood-opacity="0" result="BackgroundImageFix"/>
<feColorMatrix in="SourceAlpha" type="matrix" values="0 0 0 0 0 0 0 0 0 0 0 0 0 0 0 0 0 0 127 0" result="hardAlpha"/>
<feOffset dy="4"/>
<feGaussianBlur stdDeviation="2"/>
<feComposite in2="hardAlpha" operator="out"/>
<feColorMatrix type="matrix" values="0 0 0 0 0 0 0 0 0 0 0 0 0 0 0 0 0 0 0.25 0"/>
<feBlend mode="normal" in2="BackgroundImageFix" result="effect1_dropShadow_0_1"/>
<feBlend mode="normal" in="SourceGraphic" in2="effect1_dropShadow_0_1" result="shape"/>
</filter>
<clipPath id="clip0_0_1">
<rect width="1440" height="1650" fill="white" transform="translate(-203 -273)"/>
</clipPath>
<clipPath id="clip1_0_1">
<rect width="1440" height="1650" fill="white" transform="translate(-203 -273)"/>
</clipPath>
</defs>
</svg>
